# xmcd
#
# Track frame offsets:
#	150
#	13500
#	25455
#	39763
#	52293
#	65533
#	75963
#	95470
#	105373
#	116310
#
# Disc length: 1708 seconds
#
# Revision: 1
# Processed by: cddbd v1.5.1PL0 Copyright (c) Steve Scherf et al.
# Submitted via: audiograbber 1.83.01
#
DISCID=6e06aa0a
DTITLE=Kenny Rogers Vol. 1 - The Best of Kenny Rogers
DYEAR=1900
DGENRE=Country
TTITLE0=Ruby, Don't Take Your Love to Town
TTITLE1=Me and Bobby McGee
TTITLE2=Sunshine
TTITLE3=Ruben James
TTITLE4=Shine On Ruby Mountain
TTITLE5=Ticken  To Nowhere
TTITLE6=Lay It Down
TTITLE7=New Design
TTITLE8=Always Leaving, Always Gone
TTITLE9=What Am I Gonna Do
EXTD=
EXTT0=
EXTT1=
EXTT2=
EXTT3=
EXTT4=
EXTT5=
EXTT6=
EXTT7=
EXTT8=
EXTT9=
PLAYORDER=
